<?xml version="1.0" encoding="utf-8"?>
<!-- Generator: Adobe Illustrator 21.0.0, SVG Export Plug-In . SVG Version: 6.00 Build 0)  -->
<!DOCTYPE svg PUBLIC "-//W3C//DTD SVG 1.1//EN" "http://www.w3.org/Graphics/SVG/1.1/DTD/svg11.dtd">
<svg version="1.1" id="Layer_1" xmlns="http://www.w3.org/2000/svg" xmlns:xlink="http://www.w3.org/1999/xlink" x="0px" y="0px"
	 viewBox="0 0 100 63" style="enable-background:new 0 0 100 63;" xml:space="preserve">
<style type="text/css">
	.st0{fill:#FFFFFF;}
	.st1{fill:none;stroke:#000000;}
	.st2{clip-path:url(#SVGID_2_);fill:none;stroke:#000000;stroke-linejoin:round;}
	.st3{clip-path:url(#SVGID_4_);fill:none;stroke:#000000;stroke-linejoin:round;}
	.st4{clip-path:url(#SVGID_6_);fill:none;stroke:#000000;stroke-linejoin:round;}
	.st5{clip-path:url(#SVGID_8_);fill:none;stroke:#000000;stroke-linejoin:round;}
	.st6{clip-path:url(#SVGID_14_);}
</style>
<rect class="st0" width="100" height="63"/>
<g>
	<line class="st1" x1="44.6" y1="11" x2="44.6" y2="23.8"/>
	<polygon class="st0" points="11.5,13.5 44.7,11.2 34.7,2.1 0.8,2 	"/>
	<g>
		<g>
			<defs>
				<rect id="SVGID_1_" x="0.3" y="0.1" width="99.4" height="62.8"/>
			</defs>
			<clipPath id="SVGID_2_">
				<use xlink:href="#SVGID_1_"  style="overflow:visible;"/>
			</clipPath>
			<polygon class="st2" points="0.8,2 11.5,13.5 44.7,11.2 34.7,2.1 			"/>
		</g>
	</g>
	<polyline class="st0" points="95.4,2.2 85.8,13.1 44.5,11.1 	"/>
	<polyline class="st1" points="95.4,2.2 85.8,13.1 44.5,11.1 	"/>
	<polygon class="st0" points="48.4,16.9 48.4,62.4 85.5,53 85.5,13.5 	"/>
	<g>
		<g>
			<defs>
				<rect id="SVGID_3_" x="0.3" y="0.1" width="99.4" height="62.8"/>
			</defs>
			<clipPath id="SVGID_4_">
				<use xlink:href="#SVGID_3_"  style="overflow:visible;"/>
			</clipPath>
			<polygon class="st3" points="48.4,16.9 48.4,62.4 85.5,53 85.5,13.5 			"/>
		</g>
	</g>
	<polygon class="st0" points="48.7,16.9 85.4,13.4 99.2,1.4 72.8,0.6 	"/>
	<g>
		<g>
			<defs>
				<rect id="SVGID_5_" x="0.3" y="0.1" width="99.4" height="62.8"/>
			</defs>
			<clipPath id="SVGID_6_">
				<use xlink:href="#SVGID_5_"  style="overflow:visible;"/>
			</clipPath>
			<polygon class="st4" points="99.2,1.4 85.4,13.4 48.7,16.9 72.8,0.6 			"/>
		</g>
	</g>
	<polygon class="st0" points="11.3,53 48.4,62.4 48.4,16.9 11.3,13.5 	"/>
	<g>
		<g>
			<defs>
				<rect id="SVGID_7_" x="0.3" y="0.1" width="99.4" height="62.8"/>
			</defs>
			<clipPath id="SVGID_8_">
				<use xlink:href="#SVGID_7_"  style="overflow:visible;"/>
			</clipPath>
			<polygon class="st5" points="11.3,13.5 11.3,53 48.4,62.4 48.4,16.9 			"/>
		</g>
		<g>
			<defs>
				<rect id="SVGID_9_" x="0.3" y="0.1" width="99.4" height="62.8"/>
			</defs>
			<clipPath id="SVGID_10_">
				<use xlink:href="#SVGID_9_"  style="overflow:visible;"/>
			</clipPath>
		</g>
		<g>
			<defs>
				<rect id="SVGID_11_" x="0.3" y="0.1" width="99.4" height="62.8"/>
			</defs>
			<clipPath id="SVGID_12_">
				<use xlink:href="#SVGID_11_"  style="overflow:visible;"/>
			</clipPath>
		</g>
	</g>
</g>
<g>
	<defs>
		<rect id="SVGID_13_" x="61.2" y="21.1" width="16.2" height="28.1"/>
	</defs>
	<clipPath id="SVGID_14_">
		<use xlink:href="#SVGID_13_"  style="overflow:visible;"/>
	</clipPath>
	<path class="st6" d="M66.4,29.2l-1.3,0.2c-1,0.1-1.7,0-1.7-0.9c0-0.9,0.8-1.2,1.7-1.3l1.3-0.2L66.4,29.2z M65.1,31.1l3.3-0.4
		l0.2-8.8l-2,0.2l-0.1,3l-1.3,0.2c-2.2,0.3-3.9,1-4,3.4C61.2,31,62.9,31.4,65.1,31.1 M75.3,29.9l2-0.2l0.1-5
		c0.1-2.9-1.1-3.8-3.7-3.5C71,21.5,70,22.9,70,25.6l-0.1,5l2-0.2l0.1-5.1c0-1.3,0.3-2.2,1.7-2.3c1.4-0.2,1.7,0.5,1.7,1.8L75.3,29.9z
		"/>
	<polygon class="st6" points="64.1,44.4 69.2,49.1 74.6,43.2 73.4,42.1 70.2,45.6 70.4,36.2 68.6,36.4 68.4,45.8 65.4,43.1 	"/>
</g>
</svg>
